<?xml version="1.0" encoding="utf-8"?>
<!-- Generator: Adobe Illustrator 27.3.0, SVG Export Plug-In . SVG Version: 6.00 Build 0)  -->
<svg version="1.1" id="Camada_1" xmlns="http://www.w3.org/2000/svg" xmlns:xlink="http://www.w3.org/1999/xlink" x="0px" y="0px"
	 viewBox="0 0 1366 768" style="enable-background:new 0 0 1366 768;" xml:space="preserve">
<style type="text/css">
	.st0{opacity:0.98;}
	.st1{fill:none;stroke:#9A9A9A;stroke-width:0.5669;stroke-miterlimit:10;stroke-dasharray:4.252;}
	.st2{fill:#8468FF;}
	.st3{fill:#9E2C6A;}
</style>
<g>
	<g>
		<path d="M320.06,501.74c33.28,0,60.28-4.61,73.89-11.51v-55.05h-78.91v-58.4h143.59v149.87c-32.86,29.51-91.47,35.58-138.56,35.58
			c-136.06,0-200.11-72.42-200.11-158.45c0-86.03,64.05-158.45,200.11-158.45c47.09,0,80.58,9.21,102.35,18.21
			c12.77,5.24,23.44,11.3,31.81,18l-33.28,48.77c-8.58-4.4-18.21-8.58-28.89-12.14c-18.21-6.08-43.33-12.35-72-12.35
			c-92.1,0-128.31,46.89-128.31,97.96S227.96,501.74,320.06,501.74z"/>
		<path d="M749.45,532.72c-7.54,5.24-16.96,9.84-28.26,13.82c-19.26,6.91-48.35,13.61-88.75,13.61
			c-109.47,0-144.43-55.05-144.43-114.08c0-61.12,43.33-114.08,140.24-114.08c94.61,0,140.03,52.12,136.05,139.41H559.4
			c0,12.14,12.77,38.1,73.05,38.1c24.91,0,45.84-4.4,61.54-8.79c9-2.51,17.17-5.45,24.7-9L749.45,532.72z M696.92,427.02
			c0-12.56-14.86-44.37-68.66-44.37c-53.79,0-68.65,31.81-68.65,44.37H696.92z"/>
		<path d="M866.95,338.27v29.1c12.35-19.05,35.58-35.38,78.49-35.38c87.92,0,119.94,50.03,119.94,118.47v110.68h-68.65V450.46
			c0-35.79-14.86-65.72-64.89-65.72c-50.03,0-64.89,29.93-64.89,65.72v110.68h-68.66V338.27H866.95z"/>
	</g>
</g>
<g class="st0">
	<g>
		<g>
			<path class="st1" d="M1097.71,353.31"/>
		</g>
	</g>
</g>
<g>
	<g>
		<g>
			<path class="st2" d="M1093.84,289.33"/>
		</g>
	</g>
</g>
<g>
	<g>
		<g>
			<g>
				<path class="st2" d="M1109.22,274.25c-2.02-1.13-5.29-3.88-11.06-9.61c-29.61-29.42-29.51-29.35-29.51-29.35
					c-5.32,8.92-12.01,12.79-12.01,12.79s16.29,17.29,28.52,30.09c5.11,5.35,7.64,8.75,8.88,10.91c0,0,0.94,1.52,1.03,3.35
					c6.6-10.86,16.31-17.1,16.31-17.1s0.31-0.23,0.48-0.34C1110.02,274.86,1109.22,274.25,1109.22,274.25z"/>
			</g>
		</g>
	</g>
</g>
<g>
	<path class="st2" d="M1245.85,228.76c2.36,0.69,5.17,1.4,8.17,1.4c13.76,0,24.95-11.19,24.95-24.95c0-6.67-2.6-12.93-7.31-17.65
		c-4.71-4.71-10.98-7.31-17.65-7.31c-13.76,0-24.95,11.19-24.95,24.95c0,3,0.71,5.81,1.4,8.17c0.84,2.87-0.38,4.6-1.69,5.91
		c-0.08,0.08-3,3-7.46,7.46l-43.74,43.74c-4.57,4.57-9.9,5.74-15.83,3.47c-5.23-2-13.12-5.02-21.96-5.02c-0.01,0-0.02,0-0.03,0
		c-27.86,0.02-50.53,22.69-50.53,50.53c0,13.5,5.26,26.19,14.8,35.73c9.54,9.55,22.23,14.8,35.73,14.8
		c27.84,0,50.51-22.67,50.53-50.53c0.01-8.85-3.02-16.75-5.02-21.99c-2.27-5.93-1.1-11.25,3.47-15.83l51.2-51.19
		C1241.26,229.14,1242.98,227.92,1245.85,228.76z"/>
</g>
<g>
	<path class="st3" d="M1052.83,205.41c-0.12,2.9-0.82,5.8-1.75,8.54c-0.58,1.67-0.06,3.55,1.28,4.69l0.05,0.04l15.44,15.86
		c6.08-8.47,9.34-18.46,9.49-28.94c0.03-1.72-0.08-3.76-0.23-5.51L1052.83,205.41z"/>
	<path class="st2" d="M1107.12,193.49c5.06,6.72,12.46,10.05,21.6,9.69c13.68-0.55,24.82-11.61,25.47-25.29
		c0.72-15.27-11.45-27.88-26.57-27.88c-13.44,0-24.55,9.97-26.34,22.92c-0.09,0.65-0.44,1.23-0.98,1.58
		c-0.6,0.39-0.68,0.46-1.39,0.66c-0.4,0.11-9.67,2.81-15.28,3.78c-5.18,0.9-9.03,0.78-11.64-0.84c-1.29-0.8-1.79-1.52-2.63-2.77
		c-9.39-13.88-25.28-23.01-43.31-23.01c-1.11,0-2.21,0.04-3.31,0.11c-0.18,0.01-0.35,0.02-0.53,0.03c-0.12,0.01-0.24,0.02-0.36,0.03
		c-16.91,1.21-32.92,10.58-41.88,26.45c-7.1,12.59-8.44,26.86-4.84,39.76c3.59,12.9,12.1,24.44,24.69,31.54
		c0.04,0.02,0.09,0.05,0.13,0.07c2.23,1.25,4.58,2.27,7.01,3.04c5.91,2.32,12.35,3.47,19.08,3.47c11.22,0,21.32-3.33,29.84-9.35
		c-8.99-8.99-15.66-16.16-15.78-16.29c-1.3-1.6-3.45-2.22-5.41-1.57c-2.76,0.89-5.64,1.38-8.54,1.46c-14.6,0-26.4-11.95-26.18-26.59
		c0.22-13.98,11.6-25.45,25.58-25.76c14.43-0.32,26.31,11.02,27.27,25.16c0,0,1.59-0.32,1.59-0.33l45.55-10.3
		c4.45-1.17,5.24-1.82,6.88-0.08 M1101.06,175.14c0,0.01,0,0.02,0,0.03C1101.06,175.16,1101.06,175.15,1101.06,175.14z"/>
</g>
</svg>
